<?xml version="1.0" standalone="yes"?>
<svg xmlns="http://www.w3.org/2000/svg" width="2200" height="1431">
<path style="fill:#000000; stroke:none;" d="M256 522C251.855 513.135 241.877 508.832 233 506.117C211.606 499.571 187.584 508.257 175.105 527C169.576 535.304 167.263 545.222 166 555C160.516 555.045 155.101 555.746 150 557.877C117.547 571.43 111.998 607.88 112 639C112.001 654.916 114.323 671.158 115.83 687C117.578 705.363 118.573 723.684 121.272 742C125.965 773.863 133.808 805.159 142.964 836C150.203 860.385 155.85 889.305 173.184 909C197.497 936.623 249.045 936.013 270.957 905C279.232 893.288 280.52 876.922 278.711 863C275.209 836.053 257.661 812.163 254 785C316.58 785 382.609 748.576 402.961 687C408.645 669.8 409.872 649.87 408.17 632C407.036 620.089 405.927 609.175 401.127 598C395.274 584.37 386.99 571.197 374 563.453C369.89 561.003 365.608 559.271 361 558.015C358.62 557.366 355.435 557.212 353.589 555.4C350.772 552.636 350.817 546.642 349.845 543C347.95 535.904 344.784 529.015 340.56 523C327.085 503.813 299.907 498.413 279 507.428C270.492 511.097 264.293 518.304 256 522M901 765C911.504 767.718 922.212 768 933 768C970.857 768 1010.84 754.769 1036.83 726C1082.23 675.74 1080.38 586.222 1027 542.465C1013.46 531.366 996.627 525.904 980 521.36C958.888 515.591 937.77 514.411 916 515.911C872.72 518.891 827.437 529.897 807.323 573C803.508 581.176 801.957 591.175 800.2 600C796.089 620.644 794.345 641.08 792.911 662C789.403 713.172 790.75 764.068 796.845 815C799.55 837.606 801.437 862.376 808.862 884C814.066 899.157 819.986 911.922 834 920.91C863.94 940.112 909.893 927.669 922.536 894C929.703 874.914 923.878 853.737 918.559 835C912.094 812.228 904.445 788.416 901 765M1645 789C1653.85 791.615 1664.8 790 1674 790C1673.29 799.047 1673 807.901 1673 817C1665.63 817.005 1658.39 817.997 1651 818C1648.02 818.001 1644.04 817.409 1641.65 819.603C1638.11 822.852 1638.26 829.608 1637.58 834C1636.94 838.082 1634.74 844.166 1638.43 847.397C1641.11 849.74 1645.72 849 1649 849L1674 849C1672.84 863.657 1673 878.273 1673 893C1673 897.923 1671.39 906.428 1674.03 910.772C1677.41 916.334 1688.4 915.998 1694 916C1712.55 916.007 1734.03 910.52 1744.89 894C1754.41 879.53 1754.87 858.68 1757.27 842C1758.4 834.147 1758.1 824.093 1764.11 818.185C1775.66 806.824 1797.24 807.75 1812 810.286C1838.4 814.824 1834.84 844.569 1839.43 865C1842.21 877.427 1847.96 891.778 1857.09 900.907C1871.16 914.974 1892.35 917.414 1911 913.6C1921.06 911.542 1930.37 906.804 1937.71 899.572C1955.47 882.087 1956.28 856.111 1953.28 833C1947.69 789.973 1938.32 747.686 1926.29 706C1922.71 693.603 1918.43 681.402 1914.86 669C1913.13 662.997 1911.32 653.847 1906.61 649.434C1903.27 646.308 1898.21 647 1894 647L1864 647L1863 618L1896 618C1893.95 609.352 1888.75 601.674 1884.42 594C1880.74 587.467 1877.79 580.548 1874.14 574C1871.39 569.077 1868.16 561.911 1862.96 559.179C1859.97 557.608 1856.26 558.001 1853 558L1834 558C1834 551.274 1836.57 537.79 1832.4 532.214C1827.58 525.77 1816.16 525.519 1809 524.576C1780.55 520.83 1752.81 531.286 1735.01 554C1710.75 584.965 1695.38 622.269 1682.31 659C1667.2 701.442 1653.58 744.734 1645 789M1984 560L2010 560L2010 598L1977 598C1970.89 630.784 1972 664.779 1972 698C1972 747.754 1972.85 797.543 1978.17 847C1981.23 875.528 1989.87 907.982 2022 914.449C2027.05 915.465 2031.81 916.326 2037 915.907C2064.34 913.7 2079.66 888.899 2082.71 864C2085.77 839.091 2084 813.087 2084 788C2084 751.274 2085 714.703 2085 678C2073.4 676.533 2061.69 677 2050 677L2049 639L2077 639C2079.91 639 2084.95 639.912 2087.4 637.972C2089.56 636.255 2089 632.42 2089 630L2089 610C2089 582.525 2090.72 546.106 2063 530.338C2037.06 515.579 1987.12 524.509 1984 560M290 541.39C302.766 538.619 311.663 547.493 314.622 559C318.548 574.269 312.811 597.114 295 600.532C283.357 602.766 273.109 594.161 270.529 583C266.872 567.18 271.321 545.445 290 541.39M216 543.394C237.8 538.387 248.091 561.413 247.999 579C247.946 589.164 242.974 601.139 232 603.606C209.522 608.661 198.041 582.408 200.73 564C201.971 555.506 206.794 545.509 216 543.394M1833 559L1833 588C1823.86 587.607 1815.14 587.994 1806 588C1804.77 581.369 1804.95 574.724 1805 568C1805.02 565.275 1804.73 561.755 1807.32 560.028C1809.44 558.611 1812.58 559.005 1815 559L1833 559M479 583L477 583C466.888 556.329 428.14 563.635 421.61 589C415.882 611.247 435.522 631.141 450 644.961C456.458 651.125 466.589 658.839 476 658.917C490.898 659.04 503.424 645.58 513 636C517.666 631.332 522.419 626.675 525.881 621C533.485 608.536 535.276 590.122 526.211 578.039C513.858 561.575 488.117 565.427 479 583M1863 617L1844 617C1841.57 616.999 1837.78 617.624 1835.74 615.972C1833.57 614.216 1834.01 610.462 1834 608L1834 589C1840 589 1846 588.922 1852 589.004C1854.79 589.042 1858.2 588.977 1860.4 591.009C1862.21 592.682 1862.43 595.704 1862.71 598.001C1863.5 604.228 1863 610.732 1863 617M342 590.394C354.216 587.651 363.358 597.309 363.896 609C364.51 622.364 356.669 637.247 343 640.319C331.217 642.967 323.142 634.214 323.004 623C322.844 610.006 327.11 593.737 342 590.394M169 597.329C182.092 594.965 194.55 603.151 198.072 616C201.504 628.522 198.64 644.038 184 646.607C167.676 649.471 155.735 629.986 156.015 616C156.183 607.627 159.951 598.964 169 597.329M924 598.29C937.708 596.575 956.31 603.616 964.197 615C972.425 626.876 972.057 646.839 964.776 659C957.649 670.903 941.178 676.995 928 678.711C924.323 679.189 920.649 678.995 917 678.409C913.154 677.791 909.531 676.783 906 675.11C891.032 668.013 890.94 650.174 891.911 636C892.443 628.229 891.975 620.931 896.272 614C902.394 604.125 912.869 599.683 924 598.29M2049 638C2036.53 638 2023.29 639.281 2011 637L2011 599L2036 599C2039.17 599.001 2043.9 598.298 2046.4 600.742C2048.87 603.167 2047.9 607.891 2048.04 611C2048.44 620.029 2049 628.92 2049 638M256 614.3C275.211 611.532 288.283 627.126 301 638.911C309.335 646.635 318.827 654.988 322.868 666C329.472 683.996 320.526 702.414 301 705.674C288.074 707.833 277.444 699.051 265 699.183C258.655 699.25 252.716 703.08 247 705.396C234.403 710.499 217.391 713.86 206.185 703.621C200.255 698.203 199.009 690.615 199 683C198.972 660.116 215.34 647.29 229.961 632C237.649 623.959 244.311 615.985 256 614.3M1457 865L1459 865C1466.81 892.108 1494.98 913.856 1523 915.91C1542.28 917.323 1563.9 908.948 1577.96 895.826C1599.46 875.756 1611.73 843.544 1616.56 815C1618.59 803.049 1618.85 790.956 1620.42 779C1621.39 771.682 1620.72 764.352 1621.04 757C1621.51 746.305 1622.23 735.694 1620.56 725C1619.83 720.326 1619.55 711.037 1615.35 708.028C1610.86 704.813 1599.38 707 1594 707L1594 684L1609 684C1606.73 676.11 1601.46 663.426 1593 661L1593 684L1571 684C1570.03 671.65 1570 659.412 1570 647C1562.79 647 1555.94 647.073 1549 649.359C1544.29 650.91 1539.99 653.232 1536 656.159C1504.66 679.133 1527.16 721.003 1533.96 750C1535.7 757.416 1536.61 765.408 1537.04 773C1537.78 786.409 1539.05 799.32 1533.2 812C1531.27 816.195 1527.84 821.9 1523 823.124C1520.08 823.863 1517.25 821.92 1515.04 820.235C1508.32 815.102 1506.48 807.683 1504.18 800C1497.23 776.823 1499.08 737.965 1470 730.609C1466.78 729.793 1463.3 729.928 1460 730.015C1429.11 730.821 1426.58 772.83 1421.79 795C1420.09 802.844 1417.5 811.451 1412.7 817.985C1410.96 820.35 1408.35 823.99 1404.99 823.628C1400.92 823.19 1397.68 818.285 1396 815C1391.31 805.859 1391 794.048 1391 784C1391 766.364 1393.23 748.382 1396.25 731C1398.81 716.265 1402.55 701.714 1397.65 687C1395.3 679.947 1392.38 672.422 1386.91 667.184C1368.57 649.628 1338.11 653.425 1322.9 673.015C1308.64 691.378 1305.46 715.53 1303.91 738C1301.45 773.651 1304.31 809.092 1316.31 843C1320.84 855.819 1325.58 868.788 1333.44 880C1339.17 888.175 1345.95 896.25 1354 902.239C1359.29 906.173 1365.73 910.062 1372 912.175C1377.2 913.928 1383.52 915.695 1389 915.96C1420.9 917.499 1444.38 891.689 1457 865M1794.01 651.608C1802.72 649.265 1808.75 663.099 1811.92 669C1818.23 680.788 1821.84 696.613 1822 710C1822.05 714.458 1822.72 719.875 1820.68 723.996C1818.19 729.038 1813.1 731.132 1808 732.572C1803.71 733.782 1799.45 734.154 1795 733.961C1790.47 733.764 1785.22 733.242 1781 731.517C1773.12 728.293 1771.6 722.679 1770.83 715C1769.6 702.719 1773.12 691.672 1776.72 680C1779.39 671.314 1783.8 654.356 1794.01 651.608M1210 867L1213 867C1214.88 881.809 1221.67 898.971 1234 908.073C1251.84 921.23 1285.07 916.597 1295.63 896C1306.07 875.632 1293.45 859.037 1287 840C1280 819.322 1275.99 796.805 1275.04 775C1274.58 764.616 1273.8 754.362 1273.09 744C1272.54 735.937 1272.51 727.681 1269.53 720C1264.3 706.482 1251.71 700.018 1238 698C1235.27 663.798 1196.13 652.351 1167 655.17C1160.32 655.816 1153.48 657.592 1147 659.286C1140.17 661.072 1133.54 663.554 1127 666.201C1102.52 676.113 1083.8 696.377 1069.66 718C1064.41 726.022 1059.07 734.071 1055.45 743C1047.86 761.735 1044.46 782.97 1043.09 803C1042.74 808.104 1043.54 812.946 1043.91 818C1045.54 840.172 1051.8 866.569 1066.33 884C1077.05 896.866 1091.48 905.595 1107 911.533C1114.97 914.582 1123.59 915 1132 915C1154.46 915 1172.64 909.216 1190 894.561C1197.86 887.929 1207.98 877.43 1210 867M570 656.634C564.313 658.201 558.709 661.444 554 664.924C549.839 667.999 546.542 671.612 543.816 676C524.276 707.449 554.878 737.159 576.004 758.015C582.004 763.938 588.221 769.772 593.906 776C596.656 779.014 599.601 782.643 598.468 787C595.953 796.667 583.92 804.676 577 811.089C561.501 825.452 544.401 841.365 537.3 862C535.681 866.706 534.765 872.023 535.09 877C537.25 910.098 575.782 926.227 603 909.617C619.827 899.348 630.604 879.687 640.15 863C642.763 858.433 648.425 846.175 654.985 847.06C658.34 847.513 660.574 851.4 662.134 854.001C666.457 861.207 669.968 868.855 674.425 876C683.019 889.778 695.322 906.508 711 912.532C717.024 914.846 723.638 915 730 915C734.824 915 739.35 914.942 744 913.491C749.569 911.753 754.496 909.239 758.911 905.381C770.925 894.882 775.349 876.1 770.402 861C764.228 842.154 747.541 824.11 733 811.286C726.594 805.636 719.757 799.8 714.529 793C712.182 789.947 709.691 786.032 710.462 782C712.32 772.286 724.27 764.18 731 757.911C744.527 745.31 761.211 729.653 767.934 712C774.519 694.711 769.423 673.681 754 662.637C740.123 652.7 718.948 653.715 705 662.7C689.077 672.957 677.848 692.113 668.203 708C665.659 712.19 660.316 723.986 654.004 722.539C650.955 721.839 648.737 718.338 647.015 716C642.553 709.941 638.77 703.39 634.808 697C622.082 676.476 607.563 656.01 581 656C577.375 655.999 573.531 655.661 570 656.634M2049 679C2049 687.992 2049.21 697.011 2048.99 706C2048.9 709.282 2048.8 713.967 2045.7 715.972C2041.53 718.663 2032.79 717 2028 717C2024 717 2016.74 718.369 2013.56 715.397C2011.4 713.372 2011.17 709.764 2011.04 707C2010.74 700.393 2010.81 693.611 2011.02 687C2011.11 684.03 2011.43 680.74 2014.23 679.028C2016.93 677.377 2020.98 677.995 2024 678C2032.34 678.013 2040.62 679 2049 679M471 680.425C446.399 683.766 435.146 705.578 431.25 728C426.154 757.329 424 786.279 424 816C424 832.689 424.018 849.489 426.59 866C430.096 888.501 441.672 918.099 470 915.671C479.919 914.821 491.459 911.649 498.816 904.674C507.89 896.071 511.888 880.868 514.336 869C517.043 855.875 516.901 842.281 518.17 829C521.466 794.505 522.819 759.435 517.869 725C514.416 700.982 498.352 676.711 471 680.425M1593 709C1593 714.42 1592.78 719.618 1592.17 724.999C1591.94 726.976 1592.14 729.594 1590.4 730.972C1586.4 734.136 1574.94 732 1570 732L1570 709L1593 709M1170 735.301C1174.41 734.651 1180.81 734.166 1184.81 736.457C1192.87 741.066 1192.39 756.168 1191.27 764C1188.62 782.618 1184.11 801.78 1172.32 817C1167.27 823.528 1159.63 830.753 1151 831.66C1132.1 833.647 1124.49 813.829 1126.29 798C1129.2 772.306 1140.11 739.706 1170 735.301M1703 819C1703 828.296 1703.7 837.831 1702 847C1692.99 848.138 1684.08 848 1675 848L1675 820L1703 819z"/>
</svg>
