<?xml version="1.0" standalone="yes"?>
<svg xmlns="http://www.w3.org/2000/svg" viewBox="150 530 220 190" width="220" height="190">
<path style="fill:#fd8a3e; stroke:none;" d="
M290 541.39C302.766 538.619 311.663 547.493 314.622 559C318.548 574.269 312.811 597.114 295 600.532C283.357 602.766 273.109 594.161 270.529 583C266.872 567.18 271.321 545.445 290 541.39
M216 543.394C237.8 538.387 248.091 561.413 247.999 579C247.946 589.164 242.974 601.139 232 603.606C209.522 608.661 198.041 582.408 200.73 564C201.971 555.506 206.794 545.509 216 543.394
M342 590.394C354.216 587.651 363.358 597.309 363.896 609C364.51 622.364 356.669 637.247 343 640.319C331.217 642.967 323.142 634.214 323.004 623C322.844 610.006 327.11 593.737 342 590.394
M169 597.329C182.092 594.965 194.55 603.151 198.072 616C201.504 628.522 198.64 644.038 184 646.607C167.676 649.471 155.735 629.986 156.015 616C156.183 607.627 159.951 598.964 169 597.329
M256 614.3C275.211 611.532 288.283 627.126 301 638.911C309.335 646.635 318.827 654.988 322.868 666C329.472 683.996 320.526 702.414 301 705.674C288.074 707.833 277.444 699.051 265 699.183C258.655 699.25 252.716 703.08 247 705.396C234.403 710.499 217.391 713.86 206.185 703.621C200.255 698.203 199.009 690.615 199 683C198.972 660.116 215.34 647.29 229.961 632C237.649 623.959 244.311 615.985 256 614.3" />
</svg>
